# xmcd
#
# Track frame offsets:
#        150
#        15076
#        33450
#        50515
#        62148
#        81956
#        95537
#        114794
#        136601
#        152849
#        166823
#        185907
#
# Disc length: 2680 seconds
#
# Revision: 0
# Processed by: cddbd v1.5.1PL0 Copyright (c) Steve Scherf et al.
# Submitted via: ExactAudioCopy v0.95a5
#
DISCID=8e0a760c
DTITLE=DOUBTING THOMAS - Go From Here
DYEAR=1900
DGENRE=
TTITLE0=Suffice
TTITLE1=Devil In Angel's Clothing
TTITLE2=Autonomy
TTITLE3=High Regards
TTITLE4=The Yellow Brick Road
TTITLE5=Blunders
TTITLE6=East Side
TTITLE7=Valediction
TTITLE8=Game Over
TTITLE9=360 Degrees Of You
TTITLE10=Hollowed Out
TTITLE11=Atop The World
EXTD=
EXTT0=
EXTT1=
EXTT2=
EXTT3=
EXTT4=
EXTT5=
EXTT6=
EXTT7=
EXTT8=
EXTT9=
EXTT10=
EXTT11=
PLAYORDER=
